HIERARCHY
ROOT Hips
{
	OFFSET 0.053599 88.859886 3.107447
	CHANNELS 6 Xposition Yposition Zposition Zrotation Yrotation Xrotation 
	JOINT Spine
	{
		OFFSET -0.000000 8.814246 -2.080107
		CHANNELS 3 Zrotation Yrotation Xrotation
		JOINT Spine1
		{
			OFFSET 0.000000 8.844141 0.000000
			CHANNELS 3 Zrotation Yrotation Xrotation
			JOINT Spine2
			{
				OFFSET -0.000000 11.682268 0.000000
				CHANNELS 3 Zrotation Yrotation Xrotation
				JOINT Spine3
				{
					OFFSET 0.000000 11.746700 0.000000
					CHANNELS 3 Zrotation Yrotation Xrotation
					JOINT Neck
					{
						OFFSET -0.000000 17.658264 -0.000000
						CHANNELS 3 Zrotation Yrotation Xrotation
						JOINT Neck1
						{
							OFFSET -0.000000 5.101515 -0.000000
							CHANNELS 3 Zrotation Yrotation Xrotation
							JOINT Head
							{
								OFFSET 0.000000 5.101515 0.000000
								CHANNELS 3 Zrotation Yrotation Xrotation
								JOINT HeadEnd
								{
									OFFSET 0.000000 11.655085 0.000000
									CHANNELS 3 Zrotation Yrotation Xrotation
									End Site
									{
										OFFSET 0.000000 0.000000 0.000000
									}
								}
							}
						}
					}
					JOINT RightShoulder
					{
						OFFSET -2.625389 11.175210 0.000000
						CHANNELS 3 Zrotation Yrotation Xrotation
						JOINT RightArm
						{
							OFFSET -0.000000 10.434715 -0.000000
							CHANNELS 3 Zrotation Yrotation Xrotation
							JOINT RightForeArm
							{
								OFFSET -0.000000 29.628420 0.000000
								CHANNELS 3 Zrotation Yrotation Xrotation
								JOINT RightHand
								{
									OFFSET -0.000000 22.857611 0.000000
									CHANNELS 3 Zrotation Yrotation Xrotation
									JOINT RightHandThumb1
									{
										OFFSET -2.867323 3.959563 2.944291
										CHANNELS 3 Zrotation Yrotation Xrotation
										JOINT RightHandThumb2
										{
											OFFSET 0.000000 3.350399 0.000000
											CHANNELS 3 Zrotation Yrotation Xrotation
											JOINT RightHandThumb3
											{
												OFFSET 0.000000 3.756509 -0.000000
												CHANNELS 3 Zrotation Yrotation Xrotation
												JOINT RightHandThumb4
												{
													OFFSET 0.000000 3.147345 0.000000
													CHANNELS 3 Zrotation Yrotation Xrotation
													End Site
													{
														OFFSET 0.000000 0.000000 0.000000
													}
												}
											}
										}
									}
									JOINT RightHandIndex1
									{
										OFFSET -0.086752 10.030893 2.345280
										CHANNELS 3 Zrotation Yrotation Xrotation
										JOINT RightHandIndex2
										{
											OFFSET -0.000000 4.061090 0.000000
											CHANNELS 3 Zrotation Yrotation Xrotation
											JOINT RightHandIndex3
											{
												OFFSET -0.000000 3.248873 0.000000
												CHANNELS 3 Zrotation Yrotation Xrotation
												JOINT RightHandIndex4
												{
													OFFSET 0.000000 2.639709 -0.000000
													CHANNELS 3 Zrotation Yrotation Xrotation
													End Site
													{
														OFFSET 0.000000 0.000000 0.000000
													}
												}
											}
										}
									}
									JOINT RightHandMiddle1
									{
										OFFSET 0.104102 9.502952 0.006768
										CHANNELS 3 Zrotation Yrotation Xrotation
										JOINT RightHandMiddle2
										{
											OFFSET 0.000000 4.568727 0.000000
											CHANNELS 3 Zrotation Yrotation Xrotation
											JOINT RightHandMiddle3
											{
												OFFSET 0.000000 3.654981 -0.000000
												CHANNELS 3 Zrotation Yrotation Xrotation
												JOINT RightHandMiddle4
												{
													OFFSET -0.000000 2.741236 -0.000000
													CHANNELS 3 Zrotation Yrotation Xrotation
													End Site
													{
														OFFSET 0.000000 0.000000 0.000000
													}
												}
											}
										}
									}
									JOINT RightHandRing1
									{
										OFFSET 0.086752 8.921708 -2.267442
										CHANNELS 3 Zrotation Yrotation Xrotation
										JOINT RightHandRing2
										{
											OFFSET -0.000000 4.061090 0.000000
											CHANNELS 3 Zrotation Yrotation Xrotation
											JOINT RightHandRing3
											{
												OFFSET 0.000000 3.654981 -0.000000
												CHANNELS 3 Zrotation Yrotation Xrotation
												JOINT RightHandRing4
												{
													OFFSET 0.000000 2.741236 -0.000000
													CHANNELS 3 Zrotation Yrotation Xrotation
													End Site
													{
														OFFSET 0.000000 0.000000 0.000000
													}
												}
											}
										}
									}
									JOINT RightHandPinky1
									{
										OFFSET -0.173504 7.976997 -4.467199
										CHANNELS 3 Zrotation Yrotation Xrotation
										JOINT RightHandPinky2
										{
											OFFSET 0.000000 3.350399 -0.000000
											CHANNELS 3 Zrotation Yrotation Xrotation
											JOINT RightHandPinky3
											{
												OFFSET -0.000000 2.842763 0.000000
												CHANNELS 3 Zrotation Yrotation Xrotation
												JOINT RightHandPinky4
												{
													OFFSET -0.000000 2.639709 0.000000
													CHANNELS 3 Zrotation Yrotation Xrotation
													End Site
													{
														OFFSET 0.000000 0.000000 0.000000
													}
												}
											}
										}
									}
									JOINT RightForeArmEnd
									{
										OFFSET 0.000000 0.000000 0.000000
										CHANNELS 3 Zrotation Yrotation Xrotation
										End Site
										{
											OFFSET 0.000000 0.000000 0.000000
										}
									}
								}
								JOINT RightArmEnd
								{
									OFFSET 0.000000 0.000000 0.000000
									CHANNELS 3 Zrotation Yrotation Xrotation
									End Site
									{
										OFFSET 0.000000 0.000000 0.000000
									}
								}
							}
						}
					}
					JOINT LeftShoulder
					{
						OFFSET 2.625389 11.175210 0.000000
						CHANNELS 3 Zrotation Yrotation Xrotation
						JOINT LeftArm
						{
							OFFSET 0.000000 10.813635 -0.000000
							CHANNELS 3 Zrotation Yrotation Xrotation
							JOINT LeftForeArm
							{
								OFFSET 0.000000 28.724781 0.000000
								CHANNELS 3 Zrotation Yrotation Xrotation
								JOINT LeftHand
								{
									OFFSET 0.644384 25.716167 -0.328871
									CHANNELS 3 Zrotation Yrotation Xrotation
									JOINT LeftHandThumb1
									{
										OFFSET 2.867323 3.959563 2.944291
										CHANNELS 3 Zrotation Yrotation Xrotation
										JOINT LeftHandThumb2
										{
											OFFSET 0.000000 3.350399 0.000000
											CHANNELS 3 Zrotation Yrotation Xrotation
											JOINT LeftHandThumb3
											{
												OFFSET -0.000000 3.756509 0.000000
												CHANNELS 3 Zrotation Yrotation Xrotation
												JOINT LeftHandThumb4
												{
													OFFSET -0.000000 3.100000 0.000000
													CHANNELS 3 Zrotation Yrotation Xrotation
													End Site
													{
														OFFSET 0.000000 0.000000 0.000000
													}
												}
											}
										}
									}
									JOINT LeftHandIndex1
									{
										OFFSET 0.086752 10.030893 2.345280
										CHANNELS 3 Zrotation Yrotation Xrotation
										JOINT LeftHandIndex2
										{
											OFFSET -0.000000 4.061090 -0.000000
											CHANNELS 3 Zrotation Yrotation Xrotation
											JOINT LeftHandIndex3
											{
												OFFSET 0.000000 3.248873 -0.000000
												CHANNELS 3 Zrotation Yrotation Xrotation
												JOINT LeftHandIndex4
												{
													OFFSET 0.000000 2.639709 -0.000000
													CHANNELS 3 Zrotation Yrotation Xrotation
													End Site
													{
														OFFSET 0.000000 0.000000 0.000000
													}
												}
											}
										}
									}
									JOINT LeftHandMiddle1
									{
										OFFSET -0.104102 9.502952 0.006768
										CHANNELS 3 Zrotation Yrotation Xrotation
										JOINT LeftHandMiddle2
										{
											OFFSET -0.000000 4.568727 -0.000000
											CHANNELS 3 Zrotation Yrotation Xrotation
											JOINT LeftHandMiddle3
											{
												OFFSET 0.000000 3.654981 0.000000
												CHANNELS 3 Zrotation Yrotation Xrotation
												JOINT LeftHandMiddle4
												{
													OFFSET 0.000000 2.741236 -0.000000
													CHANNELS 3 Zrotation Yrotation Xrotation
													End Site
													{
														OFFSET 0.000000 0.000000 0.000000
													}
												}
											}
										}
									}
									JOINT LeftHandRing1
									{
										OFFSET -0.086752 8.921708 -2.267442
										CHANNELS 3 Zrotation Yrotation Xrotation
										JOINT LeftHandRing2
										{
											OFFSET 0.000000 4.061090 0.000000
											CHANNELS 3 Zrotation Yrotation Xrotation
											JOINT LeftHandRing3
											{
												OFFSET 0.000000 3.654981 0.000000
												CHANNELS 3 Zrotation Yrotation Xrotation
												JOINT LeftHandRing4
												{
													OFFSET 0.000000 2.741236 0.000000
													CHANNELS 3 Zrotation Yrotation Xrotation
													End Site
													{
														OFFSET 0.000000 0.000000 0.000000
													}
												}
											}
										}
									}
									JOINT LeftHandPinky1
									{
										OFFSET 0.173504 7.976997 -4.467199
										CHANNELS 3 Zrotation Yrotation Xrotation
										JOINT LeftHandPinky2
										{
											OFFSET -0.000000 3.350399 -0.000000
											CHANNELS 3 Zrotation Yrotation Xrotation
											JOINT LeftHandPinky3
											{
												OFFSET 0.000000 2.842763 0.000000
												CHANNELS 3 Zrotation Yrotation Xrotation
												JOINT LeftHandPinky4
												{
													OFFSET -0.000000 2.639709 -0.000000
													CHANNELS 3 Zrotation Yrotation Xrotation
													End Site
													{
														OFFSET 0.000000 0.000000 0.000000
													}
												}
											}
										}
									}
									JOINT LeftForeArmEnd
									{
										OFFSET 0.000000 0.000000 0.000000
										CHANNELS 3 Zrotation Yrotation Xrotation
										End Site
										{
											OFFSET 0.000000 0.000000 0.000000
										}
									}
								}
								JOINT LeftArmEnd
								{
									OFFSET 0.000000 0.000000 0.000000
									CHANNELS 3 Zrotation Yrotation Xrotation
									End Site
									{
										OFFSET 0.000000 0.000000 0.000000
									}
								}
							}
						}
					}
				}
			}
		}
	}
	JOINT RightUpLeg
	{
		OFFSET -11.289943 0.000000 0.000000
		CHANNELS 3 Zrotation Yrotation Xrotation
		JOINT RightLeg
		{
			OFFSET 0.000000 -38.200325 0.000000
			CHANNELS 3 Zrotation Yrotation Xrotation
			JOINT RightFoot
			{
				OFFSET -0.000000 -39.900856 -0.000000
				CHANNELS 3 Zrotation Yrotation Xrotation
				JOINT RightToeBase
				{
					OFFSET 0.000000 0.000000 15.261641
					CHANNELS 3 Zrotation Yrotation Xrotation
					JOINT RightToeBaseEnd
					{
						OFFSET 0.000000 0.000000 7.370709
						CHANNELS 3 Zrotation Yrotation Xrotation
						End Site
						{
							OFFSET 0.000000 0.000000 0.000000
						}
					}
				}
				JOINT RightLegEnd
				{
					OFFSET 0.000000 0.000000 0.000000
					CHANNELS 3 Zrotation Yrotation Xrotation
					End Site
					{
						OFFSET 0.000000 0.000000 0.000000
					}
				}
			}
			JOINT RightUpLegEnd
			{
				OFFSET 0.000000 0.000000 0.000000
				CHANNELS 3 Zrotation Yrotation Xrotation
				End Site
				{
					OFFSET 0.000000 0.000000 0.000000
				}
			}
		}
	}
	JOINT LeftUpLeg
	{
		OFFSET 11.315661 -0.000000 0.000000
		CHANNELS 3 Zrotation Yrotation Xrotation
		JOINT LeftLeg
		{
			OFFSET -0.000000 -38.200325 -0.000000
			CHANNELS 3 Zrotation Yrotation Xrotation
			JOINT LeftFoot
			{
				OFFSET 0.000000 -39.900856 -0.000000
				CHANNELS 3 Zrotation Yrotation Xrotation
				JOINT LeftToeBase
				{
					OFFSET -0.000000 -0.000000 15.261641
					CHANNELS 3 Zrotation Yrotation Xrotation
					JOINT LeftToeBaseEnd
					{
						OFFSET 0.000000 -0.000000 7.539996
						CHANNELS 3 Zrotation Yrotation Xrotation
						End Site
						{
							OFFSET 0.000000 0.000000 0.000000
						}
					}
				}
				JOINT LeftLegEnd
				{
					OFFSET 0.000000 0.000000 0.000000
					CHANNELS 3 Zrotation Yrotation Xrotation
					End Site
					{
						OFFSET 0.000000 0.000000 0.000000
					}
				}
			}
			JOINT LeftUpLegEnd
			{
				OFFSET 0.000000 0.000000 0.000000
				CHANNELS 3 Zrotation Yrotation Xrotation
				End Site
				{
					OFFSET 0.000000 0.000000 0.000000
				}
			}
		}
	}
}
MOTION
Frames: 4
Frame Time: 0.016667
-6.814008 88.376831 2.692102 -0.986172 2.503613 -14.325441 2.056885 0.083407 8.568718 -0.651300 0.567965 1.145505 -0.776298 0.356806 8.298760 -1.365030 0.446879 4.976947 7.127254 -2.283293 7.024780 1.981012 0.931438 -2.193820 0.245151 -1.751773 -19.128160 0.000000 0.000000 0.000000 91.330666 -0.420885 13.400826 57.231491 -25.986265 14.667148 -0.130793 17.541502 43.956280 6.352213 19.267998 -6.537501 20.266928 29.918043 61.702499 -9.024848 -12.962408 -21.748362 -6.625787 -8.609195 -15.076650 0.000000 0.000000 0.000000 16.767969 -11.567666 1.679257 12.016818 0.178676 2.101311 11.811604 -0.265792 1.904164 0.000000 0.000000 0.000000 16.200504 -6.100131 0.956920 10.723256 0.378977 0.813689 11.464643 -0.093182 0.646005 0.000000 0.000000 0.000000 16.962708 1.513443 1.051416 11.447289 -0.837986 -1.139408 11.401801 0.117781 -0.828882 0.000000 0.000000 0.000000 16.310871 9.813597 -0.398228 11.430082 -1.515361 -3.207354 11.095476 0.414169 -2.724216 0.000000 0.000000 0.000000 0.000000 0.000000 0.000000 0.000000 0.000000 0.000000 -90.147179 0.194599 6.978244 -64.719299 14.867437 6.244217 -0.071831 -13.553505 65.191109 -8.680007 -18.684965 -9.269807 -21.731264 -29.594908 60.161465 10.201160 15.943717 -26.246111 7.788930 10.667225 -18.172464 0.000000 0.000000 0.000000 -28.793310 -3.778438 1.834420 -18.194643 0.221633 -1.889798 -18.041763 -0.273367 -1.754481 0.000000 0.000000 0.000000 -26.904589 1.084585 0.263180 -17.690672 0.414691 -0.752505 -17.538164 -0.087079 -0.631010 0.000000 0.000000 0.000000 -27.528555 8.866719 -1.183193 -17.683290 -0.816886 1.114396 -17.845488 0.157710 0.808788 0.000000 0.000000 0.000000 -26.860106 16.766327 -2.696914 -16.979584 -1.486530 3.078603 -16.625740 0.505688 2.728438 0.000000 0.000000 0.000000 0.000000 0.000000 0.000000 0.000000 0.000000 0.000000 -3.321190 -10.748652 18.736179 -0.112036 -0.835864 5.667480 -0.462113 -6.582697 17.405521 -0.913093 1.237678 -18.016010 0.000000 0.000000 0.000000 0.000000 0.000000 0.000000 0.000000 0.000000 0.000000 2.415390 -6.421735 10.965154 0.162755 0.799146 13.354751 0.841055 -0.965751 13.957684 0.536306 -0.760455 -19.925936 0.000000 0.000000 0.000000 0.000000 0.000000 0.000000 0.000000 0.000000 0.000000 
-6.848037 88.383110 2.722774 -0.958844 2.710099 -14.345100 2.078399 0.078240 8.559030 -0.678361 0.577390 1.123046 -0.793774 0.378195 8.351090 -1.389083 0.444895 4.932412 7.131691 -2.320347 7.010791 1.981851 0.885018 -2.228094 0.252406 -1.758790 -19.110113 0.000000 0.000000 0.000000 91.426674 -0.428416 13.522426 57.000465 -27.455736 15.003219 -0.135703 16.999113 42.230160 6.738534 18.341494 -6.830383 20.241388 29.926937 61.735947 -8.991797 -12.886858 -21.646542 -6.601244 -8.567504 -15.005599 0.000000 0.000000 0.000000 16.529844 -11.527062 1.640075 11.899522 0.183669 2.091011 11.694589 -0.261467 1.890341 0.000000 0.000000 0.000000 15.941828 -6.056723 0.862795 10.598217 0.380958 0.809631 11.321316 -0.092062 0.641466 0.000000 0.000000 0.000000 16.623400 1.572065 0.956602 11.295280 -0.839818 -1.132371 11.246714 0.116033 -0.822089 0.000000 0.000000 0.000000 15.941054 9.888358 -0.472772 11.263879 -1.519174 -3.192201 10.936722 0.410132 -2.708140 0.000000 0.000000 0.000000 0.000000 0.000000 0.000000 0.000000 0.000000 0.000000 -90.232460 0.195623 7.123092 -64.434151 16.534657 6.452006 -0.079237 -13.036748 64.095909 -9.002551 -17.527840 -9.968480 -21.653694 -29.610153 60.225094 10.149227 15.785157 -26.035318 7.739170 10.564587 -18.014736 0.000000 0.000000 0.000000 -28.268595 -3.845893 1.821717 -17.831718 0.234005 -1.853144 -17.665928 -0.261119 -1.715515 0.000000 0.000000 0.000000 -26.343740 0.997236 0.173577 -17.307209 0.420313 -0.735487 -17.159979 -0.082193 -0.615987 0.000000 0.000000 0.000000 -26.896656 8.766533 -1.306448 -17.285625 -0.825999 1.088897 -17.442657 0.150227 0.789531 0.000000 0.000000 0.000000 -26.198505 16.666508 -2.857678 -16.575857 -1.510752 3.002074 -16.222210 0.484225 2.659857 0.000000 0.000000 0.000000 0.000000 0.000000 0.000000 0.000000 0.000000 0.000000 -3.370169 -10.851016 18.830692 -0.111202 -0.834033 5.608676 -0.455101 -6.663343 17.392529 -0.918728 1.228699 -18.019499 0.000000 0.000000 0.000000 0.000000 0.000000 0.000000 0.000000 0.000000 0.000000 2.377531 -6.529087 10.944545 0.165674 0.804415 13.372716 0.868109 -1.070981 13.969216 0.535680 -0.760900 -19.943655 0.000000 0.000000 0.000000 0.000000 0.000000 0.000000 0.000000 0.000000 0.000000 
-6.881449 88.389832 2.756094 -0.933180 2.915911 -14.361645 2.097399 0.072585 8.546305 -0.702315 0.584723 1.100641 -0.813006 0.397051 8.395675 -1.411468 0.440483 4.894195 7.135953 -2.360404 7.001223 1.980710 0.836608 -2.259380 0.259562 -1.765645 -19.094055 0.000000 0.000000 0.000000 91.509781 -0.436075 13.641819 56.807991 -28.880600 15.305254 -0.141693 16.428591 40.513519 7.136115 17.534077 -7.094564 20.219900 29.934986 61.765747 -8.961429 -12.819109 -21.556009 -6.579377 -8.530587 -14.942280 0.000000 0.000000 0.000000 16.306654 -11.489021 1.585810 11.787651 0.189936 2.076273 11.582054 -0.255917 1.872671 0.000000 0.000000 0.000000 15.697066 -6.015690 0.757159 10.477655 0.383554 0.803749 11.182961 -0.090352 0.635499 0.000000 0.000000 0.000000 16.292936 1.629323 0.848907 11.147010 -0.842669 -1.122882 11.094685 0.113525 -0.813349 0.000000 0.000000 0.000000 15.570992 9.964166 -0.554922 11.099931 -1.525502 -3.169741 10.779638 0.403936 -2.685176 0.000000 0.000000 0.000000 0.000000 0.000000 0.000000 0.000000 0.000000 0.000000 -90.300568 0.194000 7.271941 -64.176369 18.191048 6.626643 -0.085009 -12.482321 62.991417 -9.336333 -16.504759 -10.647463 -21.578878 -29.624762 60.286690 10.099091 15.631310 -25.829910 7.690969 10.465755 -17.862289 0.000000 0.000000 0.000000 -27.756769 -3.911030 1.825144 -17.471109 0.247827 -1.809842 -17.293509 -0.247374 -1.670581 0.000000 0.000000 0.000000 -25.791924 0.911772 0.099932 -16.923450 0.426530 -0.715933 -16.783415 -0.076777 -0.598828 0.000000 0.000000 0.000000 -26.264223 8.666614 -1.415613 -16.887766 -0.835983 1.059608 -17.039110 0.141988 0.767600 0.000000 0.000000 0.000000 -25.535683 16.566755 -3.005496 -16.169769 -1.536997 2.914345 -15.816262 0.461050 2.582442 0.000000 0.000000 0.000000 0.000000 0.000000 0.000000 0.000000 0.000000 0.000000 -3.414970 -10.950277 18.925835 -0.110302 -0.832083 5.546092 -0.449914 -6.744765 17.377003 -0.924486 1.219772 -18.020948 0.000000 0.000000 0.000000 0.000000 0.000000 0.000000 0.000000 0.000000 0.000000 2.339191 -6.638467 10.925056 0.168484 0.809165 13.384097 0.896598 -1.171241 13.982944 0.535541 -0.760940 -19.960756 0.000000 0.000000 0.000000 0.000000 0.000000 0.000000 0.000000 0.000000 0.000000 
-6.913775 88.396683 2.792271 -0.910231 3.117947 -14.375605 2.113959 0.066539 8.531614 -0.722005 0.589435 1.078019 -0.834142 0.412483 8.433060 -1.430338 0.433286 4.863355 7.139304 -2.403974 6.996881 1.977084 0.786371 -2.286942 0.266148 -1.772662 -19.079819 0.000000 0.000000 0.000000 91.580788 -0.444047 13.758411 56.649899 -30.250149 15.576985 -0.149120 15.835840 38.821774 7.532019 16.846809 -7.327973 20.202953 29.941967 61.791176 -8.934650 -12.760643 -21.478786 -6.560794 -8.499229 -14.888414 0.000000 0.000000 0.000000 16.100452 -11.452998 1.514121 11.679233 0.197901 2.056051 11.471841 -0.248651 1.850490 0.000000 0.000000 0.000000 15.468545 -5.977170 0.641137 10.359662 0.386967 0.795601 11.047334 -0.087893 0.627802 0.000000 0.000000 0.000000 15.976317 1.684124 0.732833 11.001122 -0.846781 -1.110427 10.944187 0.110073 -0.802380 0.000000 0.000000 0.000000 15.208838 10.038815 -0.637190 10.938021 -1.535121 -3.138080 10.623403 0.394856 -2.653826 0.000000 0.000000 0.000000 0.000000 0.000000 0.000000 0.000000 0.000000 0.000000 -90.352837 0.189688 7.424202 -63.947784 19.817829 6.760664 -0.088349 -11.888500 61.879818 -9.647945 -15.599278 -11.303714 -21.507734 -29.638563 60.345497 10.051378 15.485129 -25.633018 7.644994 10.372294 -17.717155 0.000000 0.000000 0.000000 -27.270868 -3.971653 1.849703 -17.123922 0.263190 -1.759917 -16.935900 -0.231994 -1.619889 0.000000 0.000000 0.000000 -25.262030 0.830637 0.049625 -16.549721 0.433354 -0.693926 -16.418953 -0.070797 -0.579595 0.000000 0.000000 0.000000 -25.644644 8.569263 -1.502549 -16.499327 -0.846886 1.026467 -16.644579 0.132922 0.742983 0.000000 0.000000 0.000000 -24.883627 16.468662 -3.130229 -15.769451 -1.565571 2.814941 -15.416594 0.435806 2.495942 0.000000 0.000000 0.000000 0.000000 0.000000 0.000000 0.000000 0.000000 0.000000 -3.453797 -11.045434 19.021292 -0.109246 -0.829631 5.481621 -0.447373 -6.828459 17.358149 -0.930131 1.210872 -18.019381 0.000000 0.000000 0.000000 0.000000 0.000000 0.000000 0.000000 0.000000 0.000000 2.300934 -6.751598 10.908401 0.171108 0.813393 13.386877 0.925955 -1.264793 13.998965 0.536092 -0.760839 -19.976503 0.000000 0.000000 0.000000 0.000000 0.000000 0.000000 0.000000 0.000000 0.000000 
